<?xml version="1.0" encoding="iso-8859-1"?>
<svg height="400px" width="100px" version="1.1" id="Layer_1" xmlns="http://www.w3.org/2000/svg" xmlns:xlink="http://www.w3.org/1999/xlink" 
	 viewBox="190 90 120 400" xml:space="preserve">
<path style="fill:#E09B2D;" d="M226.676,163.461v331.764c7.058,0.604,14.194,0.93,21.408,0.93c7.201,0,14.324-0.325,21.369-0.926
    V163.461H226.676z"/>
<path style="fill:#F7B239;" d="M226.676,163.461v331.764c6.612,0.565,13.296,0.876,20.045,0.913V163.461H226.676z"/>
<path style="fill:#F95428;" d="M248.163,81.412c-20.671,0-37.428,11.288-37.428,42.293c0,18.865,6.203,45.355,15.717,55.535
    c6.123,6.552,36.977,6.715,43.025,0.418c9.738-10.137,16.113-36.828,16.113-55.953C285.59,92.7,268.833,81.412,248.163,81.412z"/>
<path style="fill:#E03F20;" d="M226.452,179.241c6.123,6.552,36.977,6.715,43.025,0.418c9.738-10.137,16.113-36.828,16.113-55.953
    C285.59,92.7,216.938,169.061,226.452,179.241z"/>
</svg>